<mxfile host="app.diagrams.net" modified="2022-05-23T12:32:49.204Z" agent="5.0 (Windows NT 10.0; Win64; x64) AppleWebKit/537.36 (KHTML, like Gecko) Chrome/101.0.4951.67 Safari/537.36" etag="32Jh5lf7GnKLFav5zS28" version="17.4.6" type="github">
  <diagram id="kA9SvveJpOIePVU9bLyc" name="Page-1">
    <mxGraphModel dx="1335" dy="669" grid="1" gridSize="10" guides="1" tooltips="1" connect="1" arrows="1" fold="1" page="1" pageScale="1" pageWidth="850" pageHeight="1100" math="0" shadow="0">
      <root>
        <mxCell id="0" />
        <mxCell id="1" parent="0" />
        <mxCell id="yfkK_jNoDHx1YTj3k3sY-1" value="activity diagram admin mengatur orderan user" style="shape=umlFrame;whiteSpace=wrap;html=1;width=210;height=30;" vertex="1" parent="1">
          <mxGeometry x="130" y="40" width="670" height="790" as="geometry" />
        </mxCell>
        <mxCell id="yfkK_jNoDHx1YTj3k3sY-2" value="Admin" style="swimlane;" vertex="1" parent="1">
          <mxGeometry x="220" y="80" width="230" height="660" as="geometry" />
        </mxCell>
        <mxCell id="yfkK_jNoDHx1YTj3k3sY-29" value="" style="rhombus;whiteSpace=wrap;html=1;" vertex="1" parent="yfkK_jNoDHx1YTj3k3sY-2">
          <mxGeometry x="83.17999999999999" y="450" width="73.64" height="40" as="geometry" />
        </mxCell>
        <mxCell id="yfkK_jNoDHx1YTj3k3sY-32" value="ubah status disetujui" style="rounded=1;whiteSpace=wrap;html=1;fontSize=8;" vertex="1" parent="yfkK_jNoDHx1YTj3k3sY-2">
          <mxGeometry x="120" y="530" width="96.25" height="45" as="geometry" />
        </mxCell>
        <mxCell id="yfkK_jNoDHx1YTj3k3sY-35" value="" style="endArrow=open;endFill=1;endSize=12;html=1;rounded=0;fontSize=9;exitX=1;exitY=0.5;exitDx=0;exitDy=0;entryX=0.692;entryY=-0.013;entryDx=0;entryDy=0;entryPerimeter=0;" edge="1" parent="yfkK_jNoDHx1YTj3k3sY-2" source="yfkK_jNoDHx1YTj3k3sY-29" target="yfkK_jNoDHx1YTj3k3sY-32">
          <mxGeometry width="160" relative="1" as="geometry">
            <mxPoint x="93.18000000000006" y="480" as="sourcePoint" />
            <mxPoint x="55.00363636363625" y="540" as="targetPoint" />
            <Array as="points">
              <mxPoint x="187" y="470" />
            </Array>
          </mxGeometry>
        </mxCell>
        <mxCell id="yfkK_jNoDHx1YTj3k3sY-3" value="System" style="swimlane;startSize=23;" vertex="1" parent="1">
          <mxGeometry x="450" y="80" width="220" height="660" as="geometry" />
        </mxCell>
        <mxCell id="yfkK_jNoDHx1YTj3k3sY-5" value="" style="ellipse;html=1;shape=endState;fillColor=#000000;strokeColor=#000000;fontSize=8;" vertex="1" parent="yfkK_jNoDHx1YTj3k3sY-3">
          <mxGeometry x="115" y="610" width="30" height="30" as="geometry" />
        </mxCell>
        <mxCell id="yfkK_jNoDHx1YTj3k3sY-7" value="&lt;font style=&quot;font-size: 9px&quot;&gt;Finish&lt;/font&gt;" style="text;html=1;strokeColor=none;fillColor=none;align=center;verticalAlign=middle;whiteSpace=wrap;rounded=0;" vertex="1" parent="yfkK_jNoDHx1YTj3k3sY-3">
          <mxGeometry x="100" y="630" width="60" height="30" as="geometry" />
        </mxCell>
        <mxCell id="yfkK_jNoDHx1YTj3k3sY-8" value="&lt;font style=&quot;font-size: 6px&quot;&gt;system check apakah data tersebut ada di database ?&amp;nbsp;&lt;/font&gt;" style="text;html=1;strokeColor=none;fillColor=none;align=center;verticalAlign=middle;whiteSpace=wrap;rounded=0;" vertex="1" parent="yfkK_jNoDHx1YTj3k3sY-3">
          <mxGeometry x="140" y="120" width="70" height="30" as="geometry" />
        </mxCell>
        <mxCell id="yfkK_jNoDHx1YTj3k3sY-40" value="Muncul notifikasi, &quot;ubah status sukses&quot;" style="rounded=1;whiteSpace=wrap;html=1;fontSize=8;" vertex="1" parent="yfkK_jNoDHx1YTj3k3sY-3">
          <mxGeometry x="71.25" y="530" width="96.25" height="45" as="geometry" />
        </mxCell>
        <mxCell id="yfkK_jNoDHx1YTj3k3sY-43" value="" style="endArrow=open;endFill=1;endSize=12;html=1;rounded=0;fontSize=9;" edge="1" parent="yfkK_jNoDHx1YTj3k3sY-3" source="yfkK_jNoDHx1YTj3k3sY-40" target="yfkK_jNoDHx1YTj3k3sY-5">
          <mxGeometry width="160" relative="1" as="geometry">
            <mxPoint x="-80.65789473684208" y="405" as="sourcePoint" />
            <mxPoint x="-93.42793395805438" y="463.56983489513595" as="targetPoint" />
            <Array as="points">
              <mxPoint x="130" y="600" />
            </Array>
          </mxGeometry>
        </mxCell>
        <mxCell id="yfkK_jNoDHx1YTj3k3sY-9" value="" style="ellipse;html=1;shape=startState;fillColor=#000000;strokeColor=#000000;" vertex="1" parent="1">
          <mxGeometry x="270" y="130" width="30" height="30" as="geometry" />
        </mxCell>
        <mxCell id="yfkK_jNoDHx1YTj3k3sY-10" value="&lt;font style=&quot;font-size: 9px&quot;&gt;start&lt;/font&gt;" style="text;html=1;strokeColor=none;fillColor=none;align=center;verticalAlign=middle;whiteSpace=wrap;rounded=0;" vertex="1" parent="1">
          <mxGeometry x="255" y="150" width="60" height="30" as="geometry" />
        </mxCell>
        <mxCell id="yfkK_jNoDHx1YTj3k3sY-11" value="" style="endArrow=open;endFill=1;endSize=12;html=1;rounded=0;fontSize=9;" edge="1" parent="1" source="yfkK_jNoDHx1YTj3k3sY-9">
          <mxGeometry width="160" relative="1" as="geometry">
            <mxPoint x="300" y="200" as="sourcePoint" />
            <mxPoint x="345.0000000000002" y="210" as="targetPoint" />
            <Array as="points">
              <mxPoint x="345" y="145" />
            </Array>
          </mxGeometry>
        </mxCell>
        <mxCell id="yfkK_jNoDHx1YTj3k3sY-12" value="" style="endArrow=open;endFill=1;endSize=12;html=1;rounded=0;fontSize=9;exitX=1;exitY=0.5;exitDx=0;exitDy=0;entryX=0.009;entryY=0.601;entryDx=0;entryDy=0;entryPerimeter=0;" edge="1" parent="1" target="yfkK_jNoDHx1YTj3k3sY-20">
          <mxGeometry width="160" relative="1" as="geometry">
            <mxPoint x="405.0000000000002" y="227.5" as="sourcePoint" />
            <mxPoint x="490" y="161" as="targetPoint" />
            <Array as="points">
              <mxPoint x="440" y="228" />
              <mxPoint x="440" y="160" />
            </Array>
          </mxGeometry>
        </mxCell>
        <mxCell id="yfkK_jNoDHx1YTj3k3sY-13" value="" style="rhombus;whiteSpace=wrap;html=1;fontSize=9;strokeColor=#000000;" vertex="1" parent="1">
          <mxGeometry x="550" y="220" width="60" height="30" as="geometry" />
        </mxCell>
        <mxCell id="yfkK_jNoDHx1YTj3k3sY-14" value="" style="endArrow=open;endFill=1;endSize=12;html=1;rounded=0;fontSize=9;exitX=0;exitY=0.5;exitDx=0;exitDy=0;entryX=1;entryY=0.75;entryDx=0;entryDy=0;" edge="1" parent="1" source="yfkK_jNoDHx1YTj3k3sY-13">
          <mxGeometry width="160" relative="1" as="geometry">
            <mxPoint x="415" y="237.5" as="sourcePoint" />
            <mxPoint x="405.0000000000002" y="236.25" as="targetPoint" />
            <Array as="points">
              <mxPoint x="450" y="238" />
            </Array>
          </mxGeometry>
        </mxCell>
        <mxCell id="yfkK_jNoDHx1YTj3k3sY-15" value="" style="endArrow=open;endFill=1;endSize=12;html=1;rounded=0;fontSize=9;entryX=0.5;entryY=0;entryDx=0;entryDy=0;" edge="1" parent="1" source="yfkK_jNoDHx1YTj3k3sY-13">
          <mxGeometry width="160" relative="1" as="geometry">
            <mxPoint x="560" y="245" as="sourcePoint" />
            <mxPoint x="580.0000000000002" y="290" as="targetPoint" />
            <Array as="points" />
          </mxGeometry>
        </mxCell>
        <mxCell id="yfkK_jNoDHx1YTj3k3sY-16" value="" style="endArrow=open;endFill=1;endSize=12;html=1;rounded=0;fontSize=9;entryX=0.5;entryY=0;entryDx=0;entryDy=0;" edge="1" parent="1">
          <mxGeometry width="160" relative="1" as="geometry">
            <mxPoint x="579.5200000000002" y="180" as="sourcePoint" />
            <mxPoint x="579.5200000000002" y="220" as="targetPoint" />
            <Array as="points" />
          </mxGeometry>
        </mxCell>
        <mxCell id="yfkK_jNoDHx1YTj3k3sY-17" value="&lt;font style=&quot;font-size: 8px&quot;&gt;Ya&lt;/font&gt;" style="text;html=1;strokeColor=none;fillColor=none;align=center;verticalAlign=middle;whiteSpace=wrap;rounded=0;" vertex="1" parent="1">
          <mxGeometry x="580" y="250" width="70" height="30" as="geometry" />
        </mxCell>
        <mxCell id="yfkK_jNoDHx1YTj3k3sY-18" value="&lt;span style=&quot;font-size: 8px&quot;&gt;Tidak&lt;/span&gt;" style="text;html=1;strokeColor=none;fillColor=none;align=center;verticalAlign=middle;whiteSpace=wrap;rounded=0;" vertex="1" parent="1">
          <mxGeometry x="440" y="210" width="70" height="30" as="geometry" />
        </mxCell>
        <mxCell id="yfkK_jNoDHx1YTj3k3sY-19" value="Login" style="rounded=1;whiteSpace=wrap;html=1;fontSize=8;" vertex="1" parent="1">
          <mxGeometry x="315" y="210" width="90" height="45" as="geometry" />
        </mxCell>
        <mxCell id="yfkK_jNoDHx1YTj3k3sY-20" value="Verifikasi" style="rounded=1;whiteSpace=wrap;html=1;fontSize=8;" vertex="1" parent="1">
          <mxGeometry x="530" y="135" width="95" height="45" as="geometry" />
        </mxCell>
        <mxCell id="yfkK_jNoDHx1YTj3k3sY-21" value="Menampilkan menu dashboard admin" style="rounded=1;whiteSpace=wrap;html=1;fontSize=8;" vertex="1" parent="1">
          <mxGeometry x="521.25" y="290" width="117.5" height="45" as="geometry" />
        </mxCell>
        <mxCell id="yfkK_jNoDHx1YTj3k3sY-22" value="pilih menu manage order" style="rounded=1;whiteSpace=wrap;html=1;fontSize=8;" vertex="1" parent="1">
          <mxGeometry x="300" y="290" width="117.5" height="45" as="geometry" />
        </mxCell>
        <mxCell id="yfkK_jNoDHx1YTj3k3sY-23" value="" style="endArrow=open;endFill=1;endSize=12;html=1;rounded=0;fontSize=9;" edge="1" parent="1" source="yfkK_jNoDHx1YTj3k3sY-21" target="yfkK_jNoDHx1YTj3k3sY-22">
          <mxGeometry width="160" relative="1" as="geometry">
            <mxPoint x="560" y="245" as="sourcePoint" />
            <mxPoint x="415" y="246.25" as="targetPoint" />
            <Array as="points" />
          </mxGeometry>
        </mxCell>
        <mxCell id="yfkK_jNoDHx1YTj3k3sY-24" value="Menampilkan tabel daftar pemesanan user" style="rounded=1;whiteSpace=wrap;html=1;fontSize=8;" vertex="1" parent="1">
          <mxGeometry x="521.25" y="370" width="117.5" height="45" as="geometry" />
        </mxCell>
        <mxCell id="yfkK_jNoDHx1YTj3k3sY-25" value="" style="endArrow=open;endFill=1;endSize=12;html=1;rounded=0;fontSize=9;" edge="1" parent="1" source="yfkK_jNoDHx1YTj3k3sY-22" target="yfkK_jNoDHx1YTj3k3sY-24">
          <mxGeometry width="160" relative="1" as="geometry">
            <mxPoint x="531.25" y="322.5" as="sourcePoint" />
            <mxPoint x="427.5" y="322.5" as="targetPoint" />
            <Array as="points">
              <mxPoint x="359" y="390" />
            </Array>
          </mxGeometry>
        </mxCell>
        <mxCell id="yfkK_jNoDHx1YTj3k3sY-26" value="pilih ubah status" style="rounded=1;whiteSpace=wrap;html=1;fontSize=8;" vertex="1" parent="1">
          <mxGeometry x="300" y="430" width="117.5" height="45" as="geometry" />
        </mxCell>
        <mxCell id="yfkK_jNoDHx1YTj3k3sY-27" value="" style="endArrow=open;endFill=1;endSize=12;html=1;rounded=0;fontSize=9;entryX=1;entryY=0.5;entryDx=0;entryDy=0;" edge="1" parent="1" source="yfkK_jNoDHx1YTj3k3sY-24" target="yfkK_jNoDHx1YTj3k3sY-26">
          <mxGeometry width="160" relative="1" as="geometry">
            <mxPoint x="531.25" y="322.5" as="sourcePoint" />
            <mxPoint x="427.5" y="322.5" as="targetPoint" />
            <Array as="points">
              <mxPoint x="580" y="453" />
            </Array>
          </mxGeometry>
        </mxCell>
        <mxCell id="yfkK_jNoDHx1YTj3k3sY-30" value="" style="endArrow=open;endFill=1;endSize=12;html=1;rounded=0;fontSize=9;" edge="1" parent="1" source="yfkK_jNoDHx1YTj3k3sY-26" target="yfkK_jNoDHx1YTj3k3sY-29">
          <mxGeometry width="160" relative="1" as="geometry">
            <mxPoint x="590" y="425" as="sourcePoint" />
            <mxPoint x="427.5" y="462.5" as="targetPoint" />
            <Array as="points">
              <mxPoint x="360" y="500" />
            </Array>
          </mxGeometry>
        </mxCell>
        <mxCell id="yfkK_jNoDHx1YTj3k3sY-31" value="&lt;font style=&quot;font-size: 9px&quot;&gt;Check apakah data valid?&lt;/font&gt;&lt;span style=&quot;color: rgba(0 , 0 , 0 , 0) ; font-family: monospace ; font-size: 0px&quot;&gt;%3CmxGraphModel%3E%3Croot%3E%3CmxCell%20id%3D%220%22%2F%3E%3CmxCell%20id%3D%221%22%20parent%3D%220%22%2F%3E%3CmxCell%20id%3D%222%22%20value%3D%22%22%20style%3D%22endArrow%3Dopen%3BendFill%3D1%3BendSize%3D12%3Bhtml%3D1%3Brounded%3D0%3BfontSize%3D9%3BexitX%3D0%3BexitY%3D0.5%3BexitDx%3D0%3BexitDy%3D0%3B%22%20edge%3D%221%22%20parent%3D%221%22%3E%3CmxGeometry%20width%3D%22160%22%20relative%3D%221%22%20as%3D%22geometry%22%3E%3CmxPoint%20x%3D%22323.18000000000006%22%20y%3D%22550%22%20as%3D%22sourcePoint%22%2F%3E%3CmxPoint%20x%3D%22285.00363636363625%22%20y%3D%22610%22%20as%3D%22targetPoint%22%2F%3E%3CArray%20as%3D%22points%22%3E%3CmxPoint%20x%3D%22285%22%20y%3D%22550%22%2F%3E%3C%2FArray%3E%3C%2FmxGeometry%3E%3C%2FmxCell%3E%3C%2Froot%3E%3C%2FmxGraphModel%3E&lt;/span&gt;" style="text;html=1;strokeColor=none;fillColor=none;align=center;verticalAlign=middle;whiteSpace=wrap;rounded=0;" vertex="1" parent="1">
          <mxGeometry x="365" y="520" width="75" height="20" as="geometry" />
        </mxCell>
        <mxCell id="yfkK_jNoDHx1YTj3k3sY-33" value="ubah status tidak disetujui" style="rounded=1;whiteSpace=wrap;html=1;fontSize=8;" vertex="1" parent="1">
          <mxGeometry x="236.88" y="610" width="96.25" height="45" as="geometry" />
        </mxCell>
        <mxCell id="yfkK_jNoDHx1YTj3k3sY-34" value="" style="endArrow=open;endFill=1;endSize=12;html=1;rounded=0;fontSize=9;exitX=0;exitY=0.5;exitDx=0;exitDy=0;" edge="1" parent="1" source="yfkK_jNoDHx1YTj3k3sY-29" target="yfkK_jNoDHx1YTj3k3sY-33">
          <mxGeometry width="160" relative="1" as="geometry">
            <mxPoint x="369.3421052631579" y="485" as="sourcePoint" />
            <mxPoint x="370.0000000000001" y="540" as="targetPoint" />
            <Array as="points">
              <mxPoint x="285" y="550" />
            </Array>
          </mxGeometry>
        </mxCell>
        <mxCell id="yfkK_jNoDHx1YTj3k3sY-38" value="&lt;font size=&quot;1&quot;&gt;Yes&lt;/font&gt;" style="text;html=1;strokeColor=none;fillColor=none;align=center;verticalAlign=middle;whiteSpace=wrap;rounded=0;" vertex="1" parent="1">
          <mxGeometry x="388" y="570" width="75" height="20" as="geometry" />
        </mxCell>
        <mxCell id="yfkK_jNoDHx1YTj3k3sY-39" value="&lt;font size=&quot;1&quot;&gt;No&lt;/font&gt;" style="text;html=1;strokeColor=none;fillColor=none;align=center;verticalAlign=middle;whiteSpace=wrap;rounded=0;" vertex="1" parent="1">
          <mxGeometry x="225" y="570" width="75" height="20" as="geometry" />
        </mxCell>
        <mxCell id="yfkK_jNoDHx1YTj3k3sY-41" value="" style="endArrow=open;endFill=1;endSize=12;html=1;rounded=0;fontSize=9;" edge="1" parent="1" source="yfkK_jNoDHx1YTj3k3sY-32" target="yfkK_jNoDHx1YTj3k3sY-40">
          <mxGeometry width="160" relative="1" as="geometry">
            <mxPoint x="386.82000000000005" y="560" as="sourcePoint" />
            <mxPoint x="416.605" y="619.4149999999998" as="targetPoint" />
            <Array as="points" />
          </mxGeometry>
        </mxCell>
        <mxCell id="yfkK_jNoDHx1YTj3k3sY-42" value="" style="endArrow=open;endFill=1;endSize=12;html=1;rounded=0;fontSize=9;" edge="1" parent="1" source="yfkK_jNoDHx1YTj3k3sY-33" target="yfkK_jNoDHx1YTj3k3sY-40">
          <mxGeometry width="160" relative="1" as="geometry">
            <mxPoint x="446.25" y="642.5" as="sourcePoint" />
            <mxPoint x="531.25" y="642.5" as="targetPoint" />
            <Array as="points">
              <mxPoint x="290" y="700" />
              <mxPoint x="460" y="700" />
            </Array>
          </mxGeometry>
        </mxCell>
      </root>
    </mxGraphModel>
  </diagram>
</mxfile>
